HIERARCHY
ROOT Hips
{
 OFFSET 0.000000 0.000000 0.000000
 CHANNELS 6 Xposition Yposition Zposition Yrotation Xrotation Zrotation
 JOINT Chest
 {
  OFFSET 0.000000 9.585900 0.002600
  CHANNELS 3 Yrotation Xrotation Zrotation
  JOINT Chest2
  {
   OFFSET 0.000000 9.601200 -0.005300
   CHANNELS 3 Yrotation Xrotation Zrotation
   JOINT Chest3
   {
    OFFSET 0.000000 9.561800 0.000000
    CHANNELS 3 Yrotation Xrotation Zrotation
    JOINT Chest4
    {
     OFFSET 0.000000 9.552100 0.000000
     CHANNELS 3 Yrotation Xrotation Zrotation
     JOINT Neck
     {
      OFFSET 0.000000 14.453000 0.000000
      CHANNELS 3 Yrotation Xrotation Zrotation
      JOINT Head
      {
       OFFSET 0.000000 8.936500 -0.011300
       CHANNELS 3 Yrotation Xrotation Zrotation
       End Site
       {
        OFFSET 0.000000 17.073600 -0.006000
       }
      }
     }
     JOINT RightCollar
     {
      OFFSET -2.921100 9.558500 0.000000
      CHANNELS 3 Yrotation Xrotation Zrotation
      JOINT RightShoulder
      {
       OFFSET -13.519700 0.000000 0.000000
       CHANNELS 3 Yrotation Xrotation Zrotation
       JOINT RightElbow
       {
        OFFSET 0.000000 -29.696600 0.000000
        CHANNELS 3 Yrotation Xrotation Zrotation
        JOINT RightWrist
        {
         OFFSET 0.000000 -24.004700 0.000000
         CHANNELS 3 Yrotation Xrotation Zrotation
         End Site
         {
          OFFSET 0.000000 -17.728500 0.000000
         }
        }
       }
      }
     }
     JOINT LeftCollar
     {
      OFFSET 2.921100 9.558500 0.000000
      CHANNELS 3 Yrotation Xrotation Zrotation
      JOINT LeftShoulder
      {
       OFFSET 13.519700 0.000000 0.000000
       CHANNELS 3 Yrotation Xrotation Zrotation
       JOINT LeftElbow
       {
        OFFSET 0.000000 -29.696600 0.000000
        CHANNELS 3 Yrotation Xrotation Zrotation
        JOINT LeftWrist
        {
         OFFSET 0.000000 -24.004700 0.000000
         CHANNELS 3 Yrotation Xrotation Zrotation
         End Site
         {
          OFFSET 0.000000 -17.728500 0.000000
         }
        }
       }
      }
     }
    }
   }
  }
 }
 JOINT RightHip
 {
  OFFSET -7.771700 -0.012900 -0.001300
  CHANNELS 3 Yrotation Xrotation Zrotation
  JOINT RightKnee
  {
   OFFSET 0.000000 -40.869800 0.001200
   CHANNELS 3 Yrotation Xrotation Zrotation
   JOINT RightAnkle
   {
    OFFSET 0.000000 -39.717900 0.002100
    CHANNELS 3 Yrotation Xrotation Zrotation
    JOINT RightToe
    {
     OFFSET 0.000000 -4.965400 11.033500
     CHANNELS 3 Yrotation Xrotation Zrotation
     End Site
     {
      OFFSET 0.000000 -1.423100 5.872300
     }
    }
   }
  }
 }
 JOINT LeftHip
 {
  OFFSET 7.771700 -0.012900 -0.001300
  CHANNELS 3 Yrotation Xrotation Zrotation
  JOINT LeftKnee
  {
   OFFSET 0.000000 -40.869800 0.001200
   CHANNELS 3 Yrotation Xrotation Zrotation
   JOINT LeftAnkle
   {
    OFFSET 0.000000 -39.717900 0.002100
    CHANNELS 3 Yrotation Xrotation Zrotation
    JOINT LeftToe
    {
     OFFSET 0.000000 -4.965400 11.033500
     CHANNELS 3 Yrotation Xrotation Zrotation
     End Site
     {
      OFFSET 0.000000 -1.423100 5.872300
     }
    }
   }
  }
 }
}
MOTION
Frames: 16
Frame Time: 0.008333
0.000000 85.388000 0.000000 0.000000 -5.767877 0.000000 0.000000 11.653817 0.000000 0.000000 -5.885947 0.000000 0.000000 -0.000000 0.000000 0.000000 -0.000000 0.000000 0.000000 12.528835 0.000000 0.000000 0.711642 0.000000 0.000000 -0.000000 0.000000 0.000000 0.000000 -90.000000 0.000000 -2.309062 0.000000 0.000000 2.309062 0.000000 0.000000 -0.000000 0.000000 0.000000 -0.000000 90.000000 0.000000 -2.309062 0.000000 0.000000 2.309062 0.000000 0.000000 8.520406 0.000000 0.000000 1.905762 0.000000 -0.000000 -4.658285 0.000000 0.000000 -0.000000 0.000000 0.000000 8.520406 0.000000 0.000000 1.905762 0.000000 -0.000000 -4.658285 0.000000 0.000000 -0.000000 0.000000
-55.411447 55.254827 47.485916 -178.457156 -23.630248 -10.605185 0.315861 10.757697 6.274888 -0.042769 6.007334 2.561780 -0.027396 7.549745 3.218289 -0.055984 6.039963 2.571842 0.510484 21.800972 1.323055 0.286560 -2.514662 1.203862 -1.493872 0.338572 -10.595610 -0.207035 -2.734169 -18.287036 -145.866753 -73.555548 -169.140695 25.817693 0.366381 39.768973 -6.898341 -5.944413 -0.296209 -19.720413 3.237362 25.953041 150.808518 -85.149958 -178.921924 5.898717 -0.935192 -33.854639 -21.278683 -42.252689 6.536743 -4.716738 87.533931 -8.560194 2.304851 -18.322700 2.457020 -0.036405 0.460387 -0.038029 -17.490637 -53.889015 17.808646 169.482086 78.826278 164.214054 -1.793056 -16.844987 2.870570 -0.997144 -2.747689 -0.429731
-55.401732 55.255519 47.465703 -178.503144 -23.680579 -10.622017 0.362763 10.823420 6.315570 -0.047214 6.015307 2.569470 -0.033982 7.546081 3.222582 -0.061438 6.037025 2.575170 0.564738 21.735877 1.163704 0.363255 -2.564766 1.081407 -1.590745 0.416165 -10.614680 -0.259153 -2.470486 -18.123589 -145.178647 -73.655119 -169.824472 25.718178 0.575633 39.637767 -6.789507 -5.858736 -0.250345 -19.797392 3.529373 25.844034 144.359543 -85.049128 -172.480014 5.902122 -0.694179 -33.387524 -21.255052 -42.189618 6.554015 -4.528402 87.540351 -8.368587 2.393699 -18.337868 2.425647 -0.034848 0.456959 -0.036396 -17.473652 -53.828701 17.858606 169.645616 78.804850 164.360553 -1.747153 -16.858186 2.886077 -1.030622 -2.773590 -0.445965
-55.396042 55.250118 47.454224 -178.528870 -23.659448 -10.613759 0.378211 10.806031 6.318613 -0.079911 6.066282 2.590761 -0.024560 7.511831 3.212371 -0.065136 6.034394 2.578353 0.631358 21.708224 1.043177 0.451160 -2.613029 0.939720 -1.674212 0.498766 -10.630038 -0.304847 -2.214055 -17.966225 -144.773438 -73.707450 -170.243088 25.654456 0.782824 39.434426 -6.679738 -5.766277 -0.205353 -19.855173 3.777539 25.739697 140.357682 -84.933662 -168.457255 5.883060 -0.555513 -32.963160 -21.258417 -42.212594 6.551566 -4.014769 87.557640 -7.872552 2.587241 -18.357839 2.372296 -0.030210 0.457340 -0.030949 -17.469773 -53.847480 17.885034 169.759469 78.788579 164.464517 -1.743089 -16.894567 2.894444 -1.034177 -2.761509 -0.448867
-55.390074 55.244068 47.442254 -178.550684 -23.639861 -10.601366 0.381917 10.815357 6.320524 -0.077507 6.068826 2.595701 -0.037432 7.539852 3.230446 -0.060760 6.005352 2.567193 0.697872 21.686558 0.932220 0.538917 -2.651743 0.809056 -1.755188 0.568047 -10.640965 -0.355295 -1.971683 -17.819893 -144.689169 -73.708051 -170.357410 25.628704 0.977387 39.165371 -6.580977 -5.684684 -0.163585 -19.898170 3.984587 25.643473 138.598914 -84.844029 -166.642344 5.863750 -0.515307 -32.587442 -21.256385 -42.235740 6.557492 -3.985674 87.578185 -7.840256 2.632357 -18.379010 2.352292 -0.031133 0.459731 -0.030295 -17.462875 -53.864492 17.904960 169.887828 78.773617 164.579892 -1.742405 -16.933690 2.905664 -1.032557 -2.746102 -0.450192
-55.388118 55.233626 47.437477 -178.560000 -23.575060 -10.560921 0.360678 10.781626 6.291448 -0.072656 6.071956 2.597611 -0.038282 7.547511 3.234999 -0.058783 6.007520 2.572955 0.758559 21.668203 0.831367 0.626978 -2.679252 0.689836 -1.833487 0.625485 -10.644296 -0.414398 -1.748615 -17.687837 -144.914940 -73.665950 -170.184618 25.637098 1.147705 38.833745 -6.499074 -5.614564 -0.123205 -19.929569 4.155710 25.557781 138.458707 -84.783917 -166.412773 5.847867 -0.549931 -32.243202 -21.286498 -42.318714 6.574652 -4.419393 87.606565 -8.265434 2.516667 -18.398723 2.366689 -0.036113 0.464631 -0.033448 -17.453448 -53.932730 17.895609 169.986096 78.763036 164.665821 -1.781165 -16.994647 2.910524 -0.997844 -2.699794 -0.437094
-55.381697 55.226434 47.427135 -178.561511 -23.559345 -10.543907 0.347260 10.810939 6.288142 -0.063760 6.044270 2.588725 -0.037564 7.542154 3.232378 -0.065436 6.045753 2.588973 0.829346 21.656216 0.745086 0.715749 -2.694618 0.580527 -1.894210 0.677128 -10.633549 -0.481964 -1.547652 -17.576654 -145.356870 -73.592320 -169.815234 25.672846 1.280323 38.444292 -6.420958 -5.551144 -0.082282 -19.950576 4.293363 25.484416 139.259658 -84.738525 -167.104589 5.824707 -0.628090 -31.911481 -21.288611 -42.341067 6.576004 -4.829158 87.631860 -8.652826 2.419177 -18.420615 2.376713 -0.042020 0.466976 -0.034179 -17.444550 -53.949887 17.889383 170.071305 78.750008 164.743923 -1.790925 -17.026523 2.913694 -0.989144 -2.684773 -0.432979
-55.373466 55.219711 47.416947 -178.559249 -23.558811 -10.531629 0.341780 10.816452 6.276971 -0.064332 6.053846 2.593291 -0.037357 7.567218 3.245105 -0.064305 6.053844 2.593311 0.894418 21.657590 0.662520 0.804124 -2.698484 0.479329 -1.952003 0.730001 -10.619619 -0.560173 -1.371837 -17.485516 -145.888469 -73.488854 -169.362722 25.727930 1.374398 38.017670 -6.356149 -5.490176 -0.050253 -19.961296 4.396394 25.420464 140.465650 -84.699107 -168.195989 5.797002 -0.727904 -31.596160 -21.287068 -42.347583 6.557629 -4.893542 87.654032 -8.697192 2.404386 -18.442112 2.359242 -0.043729 0.468148 -0.032408 -17.434026 -53.950431 17.881403 170.177101 78.738201 164.841811 -1.791252 -17.061473 2.918169 -0.992568 -2.667502 -0.433356
-55.364245 55.212252 47.409648 -178.562358 -23.559375 -10.515074 0.338758 10.834525 6.271479 -0.064117 6.064998 2.596551 -0.036985 7.581156 3.249286 -0.064139 6.065062 2.596707 0.927346 21.632621 0.610852 0.931204 -2.655196 0.347180 -2.000005 0.779869 -10.604958 -0.651676 -1.224782 -17.403153 -146.396880 -73.362585 -168.927840 25.795737 1.438557 37.581758 -6.298365 -5.434867 -0.018070 -19.954619 4.461082 25.362235 141.691739 -84.662235 -169.309955 5.782665 -0.830111 -31.313954 -21.285102 -42.356564 6.550333 -5.055647 87.676362 -8.853444 2.396492 -18.462160 2.347334 -0.036800 0.470521 -0.031272 -17.424913 -53.952006 17.880211 170.274042 78.726871 164.924964 -1.795410 -17.090490 2.922306 -0.991124 -2.653260 -0.431580
-55.353800 55.204867 47.403891 -178.564140 -23.570596 -10.498963 0.343820 10.861769 6.281380 -0.061861 6.094150 2.600810 -0.040642 7.577014 3.239811 -0.056022 6.135285 2.614702 1.005137 21.608126 0.510633 1.002635 -2.652367 0.279859 -2.058049 0.773240 -10.605798 -0.753167 -1.109378 -17.321156 -146.817295 -73.227057 -168.572069 25.868420 1.480202 37.160527 -6.269176 -5.434179 0.008729 -19.920318 4.482037 25.307622 142.693839 -84.627962 -170.208697 5.788323 -0.918904 -31.075544 -21.276374 -42.357431 6.542584 -5.319350 87.700106 -9.101828 2.349155 -18.476194 2.347389 -0.039952 0.468616 -0.032850 -17.408875 -53.941808 17.874073 170.353242 78.717810 164.993945 -1.812517 -17.124170 2.924448 -0.980070 -2.632443 -0.428100
-55.342269 55.197233 47.400735 -178.559887 -23.585498 -10.485025 0.343255 10.880006 6.276553 -0.063422 6.101229 2.597647 -0.036586 7.607811 3.247035 -0.059532 6.121917 2.609186 1.100179 21.679101 0.445321 1.073608 -2.644651 0.214740 -2.113116 0.857439 -10.586285 -0.857337 -1.028960 -17.239201 -147.141156 -73.096022 -168.303013 25.929144 1.502220 36.771352 -6.251915 -5.337725 0.053983 -19.853248 4.460575 25.254567 143.738630 -84.576758 -171.229897 5.831454 -0.970433 -30.815565 -21.279944 -42.354337 6.535671 -5.496652 87.719430 -9.291407 2.405543 -18.488155 2.327130 -0.036212 0.465553 -0.029901 -17.403946 -53.926234 17.877969 170.456524 78.712549 165.078890 -1.830908 -17.156729 2.924535 -0.969791 -2.608379 -0.418714
-55.330241 55.190099 47.398630 -178.557198 -23.615875 -10.468106 0.344133 10.911021 6.262319 -0.062307 6.109999 2.601821 -0.034352 7.637566 3.255822 -0.062320 6.110140 2.601794 1.169890 21.742513 0.394665 1.160462 -2.614864 0.132096 -2.176577 0.947565 -10.569080 -0.962933 -0.988226 -17.163043 -147.368745 -72.978305 -168.116842 25.961046 1.505930 36.427287 -6.246292 -5.237205 0.098421 -19.752847 4.404697 25.201920 144.051807 -84.552818 -171.448729 5.838469 -1.024765 -30.699796 -21.261010 -42.340067 6.504927 -5.484003 87.739787 -9.285459 2.504744 -18.500058 2.293465 -0.027882 0.463594 -0.027176 -17.374222 -53.904582 17.854900 170.500732 78.702603 165.112772 -1.829934 -17.171555 2.929778 -0.981118 -2.601191 -0.419856
-55.317628 55.182903 47.399565 -178.545672 -23.646878 -10.454347 0.340657 10.947866 6.260029 -0.064129 6.129223 2.603718 -0.034395 7.702484 3.270376 -0.064853 6.088056 2.591849 1.230903 21.777239 0.331614 1.241917 -2.586105 0.052423 -2.245429 1.003264 -10.561489 -1.073415 -0.986806 -17.100201 -147.485720 -72.873647 -168.027228 25.963644 1.499849 36.135371 -6.249150 -5.173936 0.134217 -19.622690 4.321300 25.149513 144.233466 -84.527388 -171.554698 5.850838 -1.060802 -30.629048 -21.249600 -42.325006 6.469666 -4.993937 87.762109 -8.776942 2.517458 -18.508261 2.259161 0.002959 0.462576 -0.026850 -17.353508 -53.880392 17.836315 170.572714 78.699633 165.172604 -1.836179 -17.187585 2.935875 -0.981345 -2.587603 -0.420774
-55.305156 55.175147 47.405037 -178.527195 -23.668582 -10.440215 0.329322 10.979254 6.260756 -0.068054 6.148622 2.597418 -0.037564 7.689212 3.259343 -0.065509 6.220045 2.622672 1.286696 21.741667 0.255422 1.318844 -2.559536 -0.026566 -2.313082 0.982749 -10.557235 -1.193081 -1.016550 -17.055493 -147.481184 -72.785858 -168.046678 25.941604 1.494875 35.896049 -6.257208 -5.185948 0.163492 -19.475904 4.221900 25.098322 144.582295 -84.499688 -171.870550 5.889188 -1.086140 -30.559559 -21.242322 -42.319615 6.448317 -5.054585 87.779671 -8.822546 2.490838 -18.514816 2.247821 -0.001303 0.464699 -0.026932 -17.332530 -53.864723 17.822168 170.672983 78.706343 165.262106 -1.870969 -17.205530 2.945614 -0.958747 -2.562377 -0.413620
-55.293784 55.171063 47.405808 -178.497212 -23.741156 -10.424973 0.312744 11.058311 6.241008 -0.066719 6.177751 2.606714 -0.039354 7.722258 3.262151 -0.069425 6.270696 2.638097 1.341251 21.740927 0.186735 1.392944 -2.532632 -0.106232 -2.377531 0.987584 -10.540705 -1.322947 -1.066282 -17.029199 -147.358334 -72.723407 -168.172858 25.896409 1.497485 35.706909 -6.267902 -5.168655 0.187000 -19.328524 4.123785 25.048460 144.943781 -84.466932 -172.200367 5.934268 -1.103977 -30.513626 -21.212591 -42.262527 6.393061 -5.136853 87.796821 -8.891436 2.454595 -18.523961 2.242532 -0.031799 0.464536 -0.026883 -17.277686 -53.802716 17.748332 170.678375 78.706903 165.268708 -1.877505 -17.207180 2.948273 -0.959420 -2.559247 -0.416310
-55.282351 55.165019 47.415719 -178.479254 -23.776692 -10.405628 0.301703 11.100240 6.231492 -0.068956 6.204620 2.611203 -0.044012 7.806570 3.290026 -0.071831 6.226732 2.613291 1.397116 21.787948 0.136114 1.464829 -2.504064 -0.185197 -2.436225 1.025975 -10.504641 -1.456810 -1.122775 -17.017747 -147.132944 -72.688366 -168.394706 25.830657 1.509076 35.564599 -6.279003 -5.113966 0.210548 -19.193790 4.038553 24.999293 145.286864 -84.431438 -172.509666 5.980129 -1.116593 -30.480052 -21.194417 -42.249126 6.364360 -5.427138 87.809803 -9.173089 2.427084 -18.518120 2.242208 -0.031168 0.461801 -0.028883 -17.235082 -53.782669 17.699258 170.663596 78.712418 165.249587 -1.877847 -17.200560 2.958056 -0.962779 -2.556103 -0.423321
